<svg width="15" height="32" viewBox="0 0 15 32" fill="none" xmlns="http://www.w3.org/2000/svg">
<g clip-path="url(#clip0_4_787)">
<path d="M14.0729 17.6825C13.552 18.0014 13.1206 18.4473 12.8189 18.9783C12.5172 19.5094 12.3553 20.1083 12.3481 20.719C12.3502 21.4064 12.5538 22.078 12.9338 22.6508C13.3138 23.2236 13.8535 23.6723 14.486 23.9413C14.2366 24.7459 13.8676 25.5084 13.3912 26.2031C12.7096 27.1843 11.9969 28.1654 10.9125 28.1654C9.8281 28.1654 9.5492 27.5354 8.2995 27.5354C7.0808 27.5354 6.647 28.1861 5.6555 28.1861C4.664 28.1861 3.9721 27.2772 3.1768 26.1618C2.12627 24.5993 1.54891 22.7668 1.514 20.8842C1.514 17.7858 3.528 16.1437 5.5109 16.1437C6.5644 16.1437 7.4423 16.8356 8.1033 16.8356C8.7333 16.8356 9.7145 16.1023 10.9125 16.1023C11.5285 16.0864 12.1389 16.2223 12.69 16.4978C13.2411 16.7734 13.716 17.1802 14.0729 17.6825ZM10.3445 14.7907C10.8726 14.1695 11.1715 13.3859 11.1914 12.5707C11.1923 12.4633 11.1819 12.356 11.1604 12.2507C10.2533 12.3393 9.4144 12.7717 8.8159 13.4591C8.28271 14.0556 7.9725 14.8183 7.938 15.6176C7.9384 15.7148 7.94879 15.8117 7.969 15.9068C8.04051 15.9204 8.11312 15.9273 8.1859 15.9275C8.60397 15.8943 9.01092 15.7763 9.382 15.5809C9.75308 15.3855 10.0805 15.1166 10.3445 14.7907Z" fill="white"/>
</g>
<defs>
<clipPath id="clip0_4_787">
<rect width="15" height="32" fill="white"/>
</clipPath>
</defs>
</svg>
