<svg width="17" height="29" viewBox="0 0 17 29" fill="none" xmlns="http://www.w3.org/2000/svg">
<g clip-path="url(#clip0_4_804)">
<path d="M15.298 27.202L11.428 23.332C12.129 22.403 12.55 21.251 12.55 20C12.55 16.94 10.061 14.45 6.99995 14.45C3.93995 14.45 1.44995 16.94 1.44995 20C1.44995 23.061 3.93995 25.55 6.99995 25.55C8.25095 25.55 9.40295 25.129 10.332 24.428L14.202 28.298C14.353 28.449 14.552 28.526 14.75 28.526C14.948 28.526 15.146 28.45 15.298 28.298C15.601 27.995 15.601 27.505 15.298 27.202ZM2.54995 20C2.54995 17.546 4.54695 15.55 6.99995 15.55C9.45395 15.55 11.45 17.547 11.45 20C11.45 22.453 9.45395 24.45 6.99995 24.45C4.54595 24.45 2.54995 22.454 2.54995 20Z" fill="#DADADA"/>
</g>
<defs>
<clipPath id="clip0_4_804">
<rect width="17" height="29" fill="white"/>
</clipPath>
</defs>
</svg>
