<svg width="78" height="14" viewBox="0 0 78 14" fill="none" xmlns="http://www.w3.org/2000/svg">
<path d="M5.92212 8.48438C5.92212 8.25195 5.88566 8.04688 5.81274 7.86914C5.74438 7.68685 5.62134 7.52279 5.4436 7.37695C5.27043 7.23112 5.02889 7.09212 4.71899 6.95996C4.41366 6.8278 4.02629 6.69336 3.55688 6.55664C3.0647 6.41081 2.62036 6.24902 2.22388 6.07129C1.82739 5.889 1.48787 5.68164 1.20532 5.44922C0.92277 5.2168 0.706299 4.9502 0.555908 4.64941C0.405518 4.34863 0.330322 4.00456 0.330322 3.61719C0.330322 3.22982 0.410075 2.87207 0.56958 2.54395C0.729085 2.21582 0.95695 1.93099 1.25317 1.68945C1.55396 1.44336 1.9117 1.25195 2.32642 1.11523C2.74113 0.978516 3.20369 0.910156 3.71411 0.910156C4.46151 0.910156 5.09497 1.05371 5.6145 1.34082C6.13859 1.62337 6.53735 1.99479 6.81079 2.45508C7.08423 2.91081 7.22095 3.39844 7.22095 3.91797H5.90845C5.90845 3.54427 5.82869 3.21387 5.66919 2.92676C5.50968 2.63509 5.26815 2.40723 4.94458 2.24316C4.62101 2.07454 4.21086 1.99023 3.71411 1.99023C3.24471 1.99023 2.85734 2.06087 2.552 2.20215C2.24666 2.34342 2.0188 2.53483 1.86841 2.77637C1.72257 3.0179 1.64966 3.29362 1.64966 3.60352C1.64966 3.81315 1.69295 4.00456 1.77954 4.17773C1.87069 4.34635 2.00968 4.50358 2.19653 4.64941C2.38794 4.79525 2.62948 4.92969 2.92114 5.05273C3.21737 5.17578 3.57056 5.29427 3.98071 5.4082C4.54582 5.56771 5.03345 5.74544 5.4436 5.94141C5.85376 6.13737 6.191 6.3584 6.45532 6.60449C6.7242 6.84603 6.92244 7.12174 7.05005 7.43164C7.18221 7.73698 7.24829 8.08333 7.24829 8.4707C7.24829 8.8763 7.16626 9.24316 7.0022 9.57129C6.83813 9.89941 6.60343 10.1797 6.2981 10.4121C5.99276 10.6445 5.6259 10.8245 5.19751 10.9521C4.77368 11.0752 4.29972 11.1367 3.77563 11.1367C3.31535 11.1367 2.8619 11.0729 2.41528 10.9453C1.97323 10.8177 1.56991 10.6263 1.20532 10.3711C0.845296 10.1159 0.555908 9.80143 0.337158 9.42773C0.122965 9.04948 0.0158691 8.61198 0.0158691 8.11523H1.32837C1.32837 8.45703 1.39445 8.75098 1.52661 8.99707C1.65877 9.23861 1.83879 9.43913 2.06665 9.59863C2.29907 9.75814 2.56112 9.87663 2.85278 9.9541C3.14901 10.027 3.45662 10.0635 3.77563 10.0635C4.23592 10.0635 4.62557 9.99967 4.94458 9.87207C5.26359 9.74447 5.50513 9.56217 5.66919 9.3252C5.83781 9.08822 5.92212 8.80794 5.92212 8.48438ZM10.0032 0.5V11H8.73853V0.5H10.0032ZM9.70239 7.02148L9.17603 7.00098C9.18058 6.49512 9.25578 6.02799 9.40161 5.59961C9.54744 5.16667 9.75252 4.79069 10.0168 4.47168C10.2812 4.15267 10.5956 3.90658 10.9602 3.7334C11.3293 3.55566 11.7372 3.4668 12.1838 3.4668C12.5484 3.4668 12.8765 3.51693 13.1682 3.61719C13.4599 3.71289 13.7083 3.86784 13.9133 4.08203C14.123 4.29622 14.2825 4.57422 14.3918 4.91602C14.5012 5.25326 14.5559 5.66569 14.5559 6.15332V11H13.2844V6.13965C13.2844 5.75228 13.2275 5.44238 13.1135 5.20996C12.9996 4.97298 12.8333 4.80208 12.6145 4.69727C12.3958 4.58789 12.1269 4.5332 11.8079 4.5332C11.4934 4.5332 11.2063 4.59928 10.9465 4.73145C10.6913 4.86361 10.4703 5.0459 10.2834 5.27832C10.1012 5.51074 9.9576 5.77734 9.85278 6.07812C9.75252 6.37435 9.70239 6.6888 9.70239 7.02148ZM16.1145 7.38379V7.22656C16.1145 6.69336 16.192 6.19889 16.3469 5.74316C16.5019 5.28288 16.7252 4.88411 17.0168 4.54688C17.3085 4.20508 17.6617 3.94076 18.0764 3.75391C18.4911 3.5625 18.956 3.4668 19.4709 3.4668C19.9905 3.4668 20.4576 3.5625 20.8723 3.75391C21.2916 3.94076 21.6471 4.20508 21.9387 4.54688C22.2349 4.88411 22.4605 5.28288 22.6155 5.74316C22.7704 6.19889 22.8479 6.69336 22.8479 7.22656V7.38379C22.8479 7.91699 22.7704 8.41146 22.6155 8.86719C22.4605 9.32292 22.2349 9.72168 21.9387 10.0635C21.6471 10.4007 21.2939 10.665 20.8792 10.8564C20.469 11.0433 20.0042 11.1367 19.4846 11.1367C18.9651 11.1367 18.498 11.0433 18.0833 10.8564C17.6685 10.665 17.3131 10.4007 17.0168 10.0635C16.7252 9.72168 16.5019 9.32292 16.3469 8.86719C16.192 8.41146 16.1145 7.91699 16.1145 7.38379ZM17.3792 7.22656V7.38379C17.3792 7.75293 17.4224 8.10156 17.509 8.42969C17.5956 8.75326 17.7255 9.04036 17.8987 9.29102C18.0764 9.54167 18.2974 9.73991 18.5618 9.88574C18.8261 10.027 19.1337 10.0977 19.4846 10.0977C19.831 10.0977 20.134 10.027 20.3938 9.88574C20.6581 9.73991 20.8769 9.54167 21.05 9.29102C21.2232 9.04036 21.3531 8.75326 21.4397 8.42969C21.5308 8.10156 21.5764 7.75293 21.5764 7.38379V7.22656C21.5764 6.86198 21.5308 6.5179 21.4397 6.19434C21.3531 5.86621 21.2209 5.57682 21.0432 5.32617C20.87 5.07096 20.6513 4.87044 20.387 4.72461C20.1272 4.57878 19.8219 4.50586 19.4709 4.50586C19.1246 4.50586 18.8193 4.57878 18.5549 4.72461C18.2952 4.87044 18.0764 5.07096 17.8987 5.32617C17.7255 5.57682 17.5956 5.86621 17.509 6.19434C17.4224 6.5179 17.3792 6.86198 17.3792 7.22656ZM25.6985 5.02539V13.8438H24.427V3.60352H25.5891L25.6985 5.02539ZM30.6819 7.24023V7.38379C30.6819 7.92155 30.6181 8.42057 30.4905 8.88086C30.3629 9.33659 30.176 9.73307 29.9299 10.0703C29.6884 10.4076 29.3899 10.6696 29.0344 10.8564C28.679 11.0433 28.2711 11.1367 27.8108 11.1367C27.3414 11.1367 26.9267 11.0592 26.5667 10.9043C26.2066 10.7493 25.9013 10.5238 25.6506 10.2275C25.4 9.93132 25.1995 9.57585 25.0491 9.16113C24.9032 8.74642 24.803 8.2793 24.7483 7.75977V6.99414C24.803 6.44727 24.9055 5.95736 25.0559 5.52441C25.2063 5.09147 25.4045 4.72233 25.6506 4.41699C25.9013 4.1071 26.2043 3.8724 26.5598 3.71289C26.9153 3.54883 27.3254 3.4668 27.7903 3.4668C28.2551 3.4668 28.6676 3.55794 29.0276 3.74023C29.3876 3.91797 29.6907 4.17318 29.9368 4.50586C30.1829 4.83854 30.3674 5.2373 30.4905 5.70215C30.6181 6.16243 30.6819 6.67513 30.6819 7.24023ZM29.4104 7.38379V7.24023C29.4104 6.87109 29.3717 6.52474 29.2942 6.20117C29.2167 5.87305 29.0959 5.58594 28.9319 5.33984C28.7724 5.08919 28.5673 4.89323 28.3167 4.75195C28.066 4.60612 27.7675 4.5332 27.4211 4.5332C27.1021 4.5332 26.8241 4.58789 26.5872 4.69727C26.3547 4.80664 26.1565 4.95475 25.9924 5.1416C25.8284 5.32389 25.6939 5.53353 25.5891 5.77051C25.4889 6.00293 25.4137 6.24447 25.3635 6.49512V8.26562C25.4547 8.58464 25.5823 8.88542 25.7463 9.16797C25.9104 9.44596 26.1292 9.67155 26.4026 9.84473C26.676 10.0133 27.0201 10.0977 27.4348 10.0977C27.7766 10.0977 28.0706 10.027 28.3167 9.88574C28.5673 9.73991 28.7724 9.54167 28.9319 9.29102C29.0959 9.04036 29.2167 8.75326 29.2942 8.42969C29.3717 8.10156 29.4104 7.75293 29.4104 7.38379ZM37.1418 3.60352V11H35.8704V3.60352H37.1418ZM35.7747 1.6416C35.7747 1.43652 35.8362 1.26335 35.9592 1.12207C36.0868 0.980794 36.2737 0.910156 36.5198 0.910156C36.7613 0.910156 36.9459 0.980794 37.0735 1.12207C37.2056 1.26335 37.2717 1.43652 37.2717 1.6416C37.2717 1.83757 37.2056 2.00618 37.0735 2.14746C36.9459 2.28418 36.7613 2.35254 36.5198 2.35254C36.2737 2.35254 36.0868 2.28418 35.9592 2.14746C35.8362 2.00618 35.7747 1.83757 35.7747 1.6416ZM43.0344 7.09668H40.3752V6.02344H43.0344C43.5494 6.02344 43.9664 5.94141 44.2854 5.77734C44.6044 5.61328 44.8368 5.38542 44.9827 5.09375C45.1331 4.80208 45.2083 4.4694 45.2083 4.0957C45.2083 3.75391 45.1331 3.43262 44.9827 3.13184C44.8368 2.83105 44.6044 2.58952 44.2854 2.40723C43.9664 2.22038 43.5494 2.12695 43.0344 2.12695H40.6829V11H39.3635V1.04688H43.0344C43.7864 1.04688 44.4221 1.17676 44.9417 1.43652C45.4612 1.69629 45.8554 2.05632 46.1243 2.5166C46.3931 2.97233 46.5276 3.49414 46.5276 4.08203C46.5276 4.72005 46.3931 5.26465 46.1243 5.71582C45.8554 6.16699 45.4612 6.51107 44.9417 6.74805C44.4221 6.98047 43.7864 7.09668 43.0344 7.09668ZM49.2688 0.5V11H48.0042V0.5H49.2688ZM48.968 7.02148L48.4417 7.00098C48.4462 6.49512 48.5214 6.02799 48.6672 5.59961C48.8131 5.16667 49.0181 4.79069 49.2825 4.47168C49.5468 4.15267 49.8612 3.90658 50.2258 3.7334C50.595 3.55566 51.0028 3.4668 51.4495 3.4668C51.814 3.4668 52.1422 3.51693 52.4338 3.61719C52.7255 3.71289 52.9739 3.86784 53.179 4.08203C53.3886 4.29622 53.5481 4.57422 53.6575 4.91602C53.7668 5.25326 53.8215 5.66569 53.8215 6.15332V11H52.55V6.13965C52.55 5.75228 52.4931 5.44238 52.3792 5.20996C52.2652 4.97298 52.0989 4.80208 51.8801 4.69727C51.6614 4.58789 51.3925 4.5332 51.0735 4.5332C50.759 4.5332 50.4719 4.59928 50.2122 4.73145C49.9569 4.86361 49.7359 5.0459 49.5491 5.27832C49.3668 5.51074 49.2232 5.77734 49.1184 6.07812C49.0181 6.37435 48.968 6.6888 48.968 7.02148ZM55.3801 7.38379V7.22656C55.3801 6.69336 55.4576 6.19889 55.6125 5.74316C55.7675 5.28288 55.9908 4.88411 56.2825 4.54688C56.5741 4.20508 56.9273 3.94076 57.342 3.75391C57.7568 3.5625 58.2216 3.4668 58.7366 3.4668C59.2561 3.4668 59.7232 3.5625 60.1379 3.75391C60.5572 3.94076 60.9127 4.20508 61.2043 4.54688C61.5006 4.88411 61.7262 5.28288 61.8811 5.74316C62.0361 6.19889 62.1135 6.69336 62.1135 7.22656V7.38379C62.1135 7.91699 62.0361 8.41146 61.8811 8.86719C61.7262 9.32292 61.5006 9.72168 61.2043 10.0635C60.9127 10.4007 60.5595 10.665 60.1448 10.8564C59.7346 11.0433 59.2698 11.1367 58.7502 11.1367C58.2307 11.1367 57.7636 11.0433 57.3489 10.8564C56.9342 10.665 56.5787 10.4007 56.2825 10.0635C55.9908 9.72168 55.7675 9.32292 55.6125 8.86719C55.4576 8.41146 55.3801 7.91699 55.3801 7.38379ZM56.6448 7.22656V7.38379C56.6448 7.75293 56.6881 8.10156 56.7747 8.42969C56.8612 8.75326 56.9911 9.04036 57.1643 9.29102C57.342 9.54167 57.5631 9.73991 57.8274 9.88574C58.0917 10.027 58.3993 10.0977 58.7502 10.0977C59.0966 10.0977 59.3997 10.027 59.6594 9.88574C59.9237 9.73991 60.1425 9.54167 60.3157 9.29102C60.4889 9.04036 60.6187 8.75326 60.7053 8.42969C60.7965 8.10156 60.842 7.75293 60.842 7.38379V7.22656C60.842 6.86198 60.7965 6.5179 60.7053 6.19434C60.6187 5.86621 60.4866 5.57682 60.3088 5.32617C60.1357 5.07096 59.9169 4.87044 59.6526 4.72461C59.3928 4.57878 59.0875 4.50586 58.7366 4.50586C58.3902 4.50586 58.0849 4.57878 57.8206 4.72461C57.5608 4.87044 57.342 5.07096 57.1643 5.32617C56.9911 5.57682 56.8612 5.86621 56.7747 6.19434C56.6881 6.5179 56.6448 6.86198 56.6448 7.22656ZM64.9641 5.18262V11H63.6995V3.60352H64.8958L64.9641 5.18262ZM64.6633 7.02148L64.137 7.00098C64.1415 6.49512 64.2167 6.02799 64.3625 5.59961C64.5084 5.16667 64.7135 4.79069 64.9778 4.47168C65.2421 4.15267 65.5566 3.90658 65.9211 3.7334C66.2903 3.55566 66.6982 3.4668 67.1448 3.4668C67.5094 3.4668 67.8375 3.51693 68.1292 3.61719C68.4208 3.71289 68.6692 3.86784 68.8743 4.08203C69.0839 4.29622 69.2434 4.57422 69.3528 4.91602C69.4622 5.25326 69.5168 5.66569 69.5168 6.15332V11H68.2454V6.13965C68.2454 5.75228 68.1884 5.44238 68.0745 5.20996C67.9605 4.97298 67.7942 4.80208 67.5754 4.69727C67.3567 4.58789 67.0878 4.5332 66.7688 4.5332C66.4543 4.5332 66.1672 4.59928 65.9075 4.73145C65.6523 4.86361 65.4312 5.0459 65.2444 5.27832C65.0621 5.51074 64.9185 5.77734 64.8137 6.07812C64.7135 6.37435 64.6633 6.6888 64.6633 7.02148ZM74.5071 11.1367C73.9921 11.1367 73.525 11.0501 73.1057 10.877C72.691 10.6992 72.3333 10.4508 72.0325 10.1318C71.7362 9.81283 71.5084 9.43457 71.3489 8.99707C71.1894 8.55957 71.1096 8.08105 71.1096 7.56152V7.27441C71.1096 6.67285 71.1985 6.13737 71.3762 5.66797C71.554 5.19401 71.7955 4.79297 72.1008 4.46484C72.4062 4.13672 72.7525 3.88835 73.1399 3.71973C73.5273 3.55111 73.9283 3.4668 74.343 3.4668C74.8717 3.4668 75.3274 3.55794 75.7102 3.74023C76.0976 3.92253 76.4143 4.17773 76.6604 4.50586C76.9065 4.82943 77.0888 5.21224 77.2073 5.6543C77.3258 6.0918 77.385 6.57031 77.385 7.08984V7.65723H71.8616V6.625H76.1204V6.5293C76.1021 6.20117 76.0338 5.88216 75.9153 5.57227C75.8014 5.26237 75.6191 5.00716 75.3684 4.80664C75.1178 4.60612 74.776 4.50586 74.343 4.50586C74.0559 4.50586 73.7916 4.56738 73.55 4.69043C73.3085 4.80892 73.1012 4.98665 72.928 5.22363C72.7548 5.46061 72.6204 5.75 72.5247 6.0918C72.429 6.43359 72.3811 6.8278 72.3811 7.27441V7.56152C72.3811 7.91243 72.429 8.24284 72.5247 8.55273C72.6249 8.85807 72.7685 9.12695 72.9553 9.35938C73.1467 9.5918 73.3769 9.77409 73.6458 9.90625C73.9192 10.0384 74.2291 10.1045 74.5754 10.1045C75.0221 10.1045 75.4003 10.0133 75.7102 9.83105C76.0201 9.64876 76.2913 9.40495 76.5237 9.09961L77.2893 9.70801C77.1298 9.94954 76.927 10.1797 76.6809 10.3984C76.4348 10.6172 76.1318 10.7949 75.7717 10.9316C75.4163 11.0684 74.9947 11.1367 74.5071 11.1367Z" fill="#0066CC"/>
</svg>
